<svg id="_3" data-name="3" xmlns="http://www.w3.org/2000/svg" width="1674" height="460" viewBox="0 0 1674 460">
  <defs>
    <style>
      .cls-1 {
        fill: #12064b;
        fill-rule: evenodd;
      }

      .cls-2 {
        fill: #27d8eb;
      }
    </style>
  </defs>
  <path id="mizzy" class="cls-1" d="M175.481,192.822a35,35,0,0,1,11.951-2.1q9.1,0,14.124,2.241a14.273,14.273,0,0,1,7.334,7.13,32.879,32.879,0,0,1,2.92,12.63q0.474,7.742.475,19.014v76.189h49.028V208.644q0-27.839-12.817-42.645T211,151.2q-13.291,0-27.123,7.062A151.737,151.737,0,0,0,155.4,177.679a45.925,45.925,0,0,0-18.039-19.76Q125.83,151.2,110.774,151.2a57.872,57.872,0,0,0-25.5,5.568,134.015,134.015,0,0,0-24.144,15.483V155.406H12.1V307.921H61.129v-108.1a102.372,102.372,0,0,1,12.223-6.179,35.079,35.079,0,0,1,13.989-2.92q8.963,0,13.921,2.241a14.92,14.92,0,0,1,7.4,7.13,33.815,33.815,0,0,1,2.988,12.7q0.541,7.812.543,18.946v76.189h49.028v-108.1A91.672,91.672,0,0,1,175.481,192.822Zm180.084-37.416H306.538V307.921h49.027V155.406ZM356.923,96.6H305.179v37.076h51.744V96.6ZM533.205,271.524H452.657l79.054-85.289V155.406H393.184v35.718h77.034l-80.293,85.425v31.372h143.28v-36.4Zm165.96,0H618.616l79.055-85.289V155.406H559.144v35.718h77.034l-80.293,85.425v31.372h143.28v-36.4Zm66.693-116.118H714.511l59.319,151.35-24.248,57.119h53.07L887.4,155.406H837.114L802.312,254Z"/>
  <rect id="Retângulo_1" data-name="Retângulo 1" class="cls-2" x="946" y="66" width="32" height="329"/>
  <path id="Software_House" data-name="Software House" class="cls-1" d="M1096.9,161.7q-5.055-5.343-15.02-7.985-4.92-1.262-12-2.462-7.1-1.2-10.93-2.042-7.275-1.68-10.15-4.863t-2.88-8.766q0-6.244,5.79-10.208t15.34-3.963a52.207,52.207,0,0,1,17.03,2.852,41.465,41.465,0,0,1,13.42,7.176h0.84v-14.05a79.583,79.583,0,0,0-13.93-4.444,77.566,77.566,0,0,0-17.3-1.8q-14.58,0-24.07,7.175t-9.49,18.4q0,9.788,5.73,15.882t17.63,8.616q5.88,1.2,11.13,1.982a87.934,87.934,0,0,1,9.76,1.981q5.94,1.562,8.86,4.383t2.91,8.766q0,6.906-6.15,11.048-6.165,4.143-17.21,4.143a51.329,51.329,0,0,1-16.69-3.062,49.415,49.415,0,0,1-15.67-8.706h-0.84v14.891a88.208,88.208,0,0,0,15.7,5.344,76.713,76.713,0,0,0,17.38,1.8,48.314,48.314,0,0,0,15.4-2.162,36.3,36.3,0,0,0,11.2-6,24.584,24.584,0,0,0,6.82-8.646,23.808,23.808,0,0,0,2.43-10.328Q1101.94,167.044,1096.9,161.7Zm71.99-18.943q-8.415-9.516-22.52-9.517-14.235,0-22.61,9.517t-8.37,25.909q0,16.391,8.37,25.878,8.385,9.487,22.61,9.487,14.115,0,22.52-9.487t8.4-25.878Q1177.29,152.273,1168.89,142.756Zm-8.38,45.092q-5.13,6.456-14.14,6.455-9.12,0-14.23-6.515t-5.1-19.123q0-13.029,5.07-19.364t14.26-6.335q9.06,0,14.17,6.335t5.1,19.364Q1165.64,181.394,1160.51,187.848Zm70.34-78.506q-2.52-.48-5.55-0.841a58.327,58.327,0,0,0-6.82-.36q-11.22,0-17.17,6.394t-5.94,18.344V135.1h-7.63v9.487h7.63v57.582h11.28V144.587h20V135.1h-20.36v-2.281q0-8.406,3.28-11.619t10.53-3.212a28.731,28.731,0,0,1,5.29.57q3,0.571,4.86,1.111h0.6V109.342Zm41.97,82.079h-0.6a40.843,40.843,0,0,1-4.32,1.351,22.1,22.1,0,0,1-5.77.81,17.029,17.029,0,0,1-7.05-1.11,8.092,8.092,0,0,1-3.63-3.513,13.493,13.493,0,0,1-1.68-5.554q-0.24-2.971-.24-8.256V144.587h23.29V135.1h-23.29V115.826h-11.29V135.1h-7.63v9.487h7.63v35.666q0,12.189,5.34,17.713t15.61,5.524a47.624,47.624,0,0,0,6.7-.541,61.3,61.3,0,0,0,6.93-1.381V191.421Zm86.64-56.321-11.64,51.938L1330.64,135.1h-9.3l-16.75,51.938L1292.28,135.1h-11.77l17.65,67.069h10.39l17.11-51.7,17.23,51.7h10.45l17.47-67.069h-11.35ZM1438,156.656a26.385,26.385,0,0,0-1.98-10.868,17.725,17.725,0,0,0-5.76-7.145,24.073,24.073,0,0,0-9.1-3.993,57.263,57.263,0,0,0-12.34-1.171,72.045,72.045,0,0,0-12.31,1.081q-6.24,1.08-9.55,1.981V148.01h0.6a77.464,77.464,0,0,1,11.29-3.393,47.821,47.821,0,0,1,9.91-1.171,49.865,49.865,0,0,1,7.03.481,16.029,16.029,0,0,1,5.76,1.861,9.837,9.837,0,0,1,3.87,3.963,13.393,13.393,0,0,1,1.35,6.364v1.742q-9.84.482-18.43,1.441a50.409,50.409,0,0,0-14.71,3.662,21.873,21.873,0,0,0-9.34,7.416q-3.27,4.715-3.27,12.339a20.229,20.229,0,0,0,6.3,15.311,21.482,21.482,0,0,0,15.38,6,35.094,35.094,0,0,0,8.58-.931,33.886,33.886,0,0,0,6.49-2.311,28.927,28.927,0,0,0,4.95-2.912q2.55-1.832,4.05-2.852v7.145H1438V156.656Zm-20.35,34.555a25.3,25.3,0,0,1-10.87,2.311q-7.155,0-10.63-2.912t-3.48-8.676a10.654,10.654,0,0,1,3-8.016,18.166,18.166,0,0,1,7.87-4.293,62.942,62.942,0,0,1,11.07-1.741q7.005-.6,12.16-0.9v18.674A48.922,48.922,0,0,1,1417.65,191.211Zm83.94-55.39c-1.76-.28-3.09-0.47-3.97-0.571s-2.3-.15-4.26-0.15a25.9,25.9,0,0,0-10.48,2.252,55.345,55.345,0,0,0-11.85,7.655V135.1h-11.29v67.069h11.29V154.554a46.445,46.445,0,0,1,9.36-5.974,23.264,23.264,0,0,1,10.09-2.312,50.113,50.113,0,0,1,5.61.271,41.684,41.684,0,0,1,4.9.87h0.6V135.821Zm66.77,27.86q0-14.59-7.36-22.516t-20.93-7.926q-14.64,0-23.62,9.667t-8.98,26.119q0,16.632,9.37,25.668t26.06,9.037a47.36,47.36,0,0,0,12.49-1.621,93.084,93.084,0,0,0,11.64-4.023V185.777h-0.6q-2.94,2.643-9.87,5.374a37.4,37.4,0,0,1-13.78,2.732,29.568,29.568,0,0,1-9.46-1.441,19.893,19.893,0,0,1-12.52-11.859,28.6,28.6,0,0,1-1.86-10.778h49.42v-6.124Zm-49.42-2.522a20.757,20.757,0,0,1,6.09-13.269q5.385-5.344,14.44-5.344,9.015,0,13.42,4.863,4.425,4.864,4.48,13.75h-38.43Zm-413.58,99.168h-11.89v35.065h-44.61V260.327h-11.89v89.4h11.89V305.959h44.61v43.772h11.89v-89.4Zm71.87,29.991q-8.4-9.516-22.51-9.517-14.235,0-22.61,9.517t-8.38,25.909q0,16.392,8.38,25.879t22.61,9.486q14.1,0,22.51-9.486t8.41-25.879Q1185.64,299.835,1177.23,290.318Zm-8.37,45.093q-5.145,6.454-14.14,6.454-9.135,0-14.23-6.514-5.115-6.514-5.11-19.124,0-13.029,5.08-19.364t14.26-6.335q9.06,0,14.17,6.335t5.1,19.364Q1173.99,328.958,1168.86,335.411Zm89.85-52.748h-11.29v50.076a44.662,44.662,0,0,1-9.69,5.824,24.038,24.038,0,0,1-9.58,2.282,18.461,18.461,0,0,1-7.51-1.2,9.677,9.677,0,0,1-4.2-3.843,15.924,15.924,0,0,1-2.04-6.215,67.941,67.941,0,0,1-.48-8.736V282.663h-11.29v43.531q0,12.489,5.89,18.944t16.45,6.454a27.326,27.326,0,0,0,11.53-2.4,54.921,54.921,0,0,0,10.92-6.9v7.445h11.29V282.663Zm65.87,35.966q-4.26-4.383-12.13-6.185-2.58-.6-6.45-1.321t-7-1.441q-5.64-1.32-8.16-3.422a8.316,8.316,0,0,1,1.68-13.3,21.194,21.194,0,0,1,10.44-2.372,36.136,36.136,0,0,1,12.13,2.192,40.3,40.3,0,0,1,10.51,5.374h0.6V286.085a45.747,45.747,0,0,0-10.24-3.572,52.1,52.1,0,0,0-12.16-1.471,38.185,38.185,0,0,0-11.61,1.651,24.818,24.818,0,0,0-8.56,4.473,18.85,18.85,0,0,0-5.19,6.545,18.224,18.224,0,0,0-1.71,7.805,17.069,17.069,0,0,0,3.69,11.138q3.69,4.535,12.52,6.875,3.18,0.841,7.05,1.561t6.28,1.261q6.48,1.442,8.76,3.483a7.642,7.642,0,0,1,2.28,6,8.092,8.092,0,0,1-4.2,7.566q-4.2,2.4-11.65,2.4a36.845,36.845,0,0,1-12.55-2.371,45.239,45.239,0,0,1-11.88-6.4h-0.61v12.669a61.092,61.092,0,0,0,10.42,3.873,49.806,49.806,0,0,0,13.66,1.771q13.155,0,20.75-5.884a18.258,18.258,0,0,0,7.59-15.071q0-7.324-4.26-11.768h0Zm76.55-7.386q0-14.59-7.35-22.516t-20.93-7.926q-14.64,0-23.62,9.667t-8.98,26.119q0,16.632,9.37,25.669t26.06,9.036a47.318,47.318,0,0,0,12.49-1.621,92.923,92.923,0,0,0,11.64-4.023V333.339h-0.6q-2.94,2.643-9.87,5.374a37.4,37.4,0,0,1-13.78,2.732A29.541,29.541,0,0,1,1366.1,340a19.893,19.893,0,0,1-12.52-11.859,28.6,28.6,0,0,1-1.86-10.777h49.41v-6.125Zm-49.41-2.522a20.759,20.759,0,0,1,6.09-13.269q5.385-5.343,14.44-5.344,9.015,0,13.42,4.864,4.425,4.863,4.48,13.749h-38.43Z"/>
</svg>
