<svg id="_2" data-name="2" xmlns="http://www.w3.org/2000/svg" xmlns:xlink="http://www.w3.org/1999/xlink" width="1674" height="460" viewBox="0 0 1674 460">
  <defs>
    <style>
      .cls-1, .cls-2, .cls-3, .cls-4, .cls-5, .cls-6 {
        fill-rule: evenodd;
      }

      .cls-1 {
        fill: url(#linear-gradient);
      }

      .cls-2 {
        fill: url(#linear-gradient-2);
      }

      .cls-3 {
        fill: url(#linear-gradient-3);
      }

      .cls-4 {
        fill: url(#linear-gradient-4);
      }

      .cls-5 {
        fill: #12064b;
      }

      .cls-6 {
        fill: #7d10f9;
      }
    </style>
    <linearGradient id="linear-gradient" x1="80.203" y1="397.656" x2="80.203" y2="28.656" gradientUnits="userSpaceOnUse">
      <stop offset="0" stop-color="#0d0544"/>
      <stop offset="1" stop-color="#7d10f9"/>
    </linearGradient>
    <linearGradient id="linear-gradient-2" x1="366.703" y1="389.875" x2="366.703" y2="16.875" gradientUnits="userSpaceOnUse">
      <stop offset="0" stop-color="#20dfea"/>
      <stop offset="1" stop-color="#ae4df9"/>
    </linearGradient>
    <linearGradient id="linear-gradient-3" x1="270.219" y1="393.875" x2="270.219" y2="16.875" gradientUnits="userSpaceOnUse">
      <stop offset="0" stop-color="#0d0544"/>
      <stop offset="0.99" stop-color="#7d10f9"/>
      <stop offset="1" stop-color="#7d10f9"/>
    </linearGradient>
    <linearGradient id="linear-gradient-4" x1="177.344" y1="395.844" x2="177.344" y2="27.469" xlink:href="#linear-gradient-2"/>
  </defs>
  <path id="Retângulo_1_copiar_2" data-name="Retângulo 1 copiar 2" class="cls-1" d="M81.138,28.644H79.271a54,54,0,0,0-54,54v261a54,54,0,0,0,54,54h1.867a54,54,0,0,0,54-54v-261A54,54,0,0,0,81.138,28.644Z"/>
  <path id="Retângulo_1_copiar_8" data-name="Retângulo 1 copiar 8" class="cls-2" d="M238.978,27.423l-1.132.826a54.9,54.9,0,0,0-12,76.778l191.706,262.28A55.074,55.074,0,0,0,494.437,379.3l1.132-.826a54.9,54.9,0,0,0,12-76.777L315.86,39.418A55.073,55.073,0,0,0,238.978,27.423Z"/>
  <path id="Retângulo_1_copiar_7" data-name="Retângulo 1 copiar 7" class="cls-3" d="M271.152,16.869h-1.867a54,54,0,0,0-54,54v269a54,54,0,0,0,54,54h1.867a54,54,0,0,0,54-54v-269A54,54,0,0,0,271.152,16.869Z"/>
  <path id="Retângulo_1_copiar_6" data-name="Retângulo 1 copiar 6" class="cls-4" d="M51.627,37.859l-1.508,1.1a54,54,0,0,0-11.781,75.453l189.25,259.279a54,54,0,0,0,75.453,11.781l1.508-1.1a54,54,0,0,0,11.781-75.454L127.08,49.64A54,54,0,0,0,51.627,37.859Z"/>
  <path id="mizzy" class="cls-5" d="M757.749,149.883a78.029,78.029,0,0,0-17.591,5.981,70.879,70.879,0,0,0-15.684,10.26,62.536,62.536,0,0,0-12.293,14.313,66.244,66.244,0,0,0-13.353-15.6A73.681,73.681,0,0,0,683.356,154.8a64.259,64.259,0,0,0-16.532-5.345,93.183,93.183,0,0,0-16.108-1.5,74.628,74.628,0,0,0-27.765,5.133,68.859,68.859,0,0,0-22.678,14.525l-8.478-19.658H541.776V358.207h58.5V247.021q0-24.091,9.749-35.507T632.065,200.1q16.948,0,25.857,10.147t8.9,35.932V358.207h58.5V245.756q0-13.531,2.755-22.406t7.418-13.956a26.313,26.313,0,0,1,10.6-7.186,34.6,34.6,0,0,1,24.374.212,26.363,26.363,0,0,1,10.81,7.822,40.73,40.73,0,0,1,7.418,14.373q2.751,8.881,2.755,21.559V358.207h58.5V235.278q0-26.279-7.206-43.237t-18.439-26.7a64.444,64.444,0,0,0-24.374-13.565,88.468,88.468,0,0,0-24.586-3.815A85,85,0,0,0,757.749,149.883Zm193.082-1.927h-58.5V358.207h58.5V147.956Zm-6.359-38.15A31.124,31.124,0,0,0,953.8,86.915a31.849,31.849,0,0,0-9.326-23.1,32.237,32.237,0,0,0-45.78,0,31.821,31.821,0,0,0-9.326,23.1A32.373,32.373,0,0,0,944.472,109.806Zm220.418,77.042V147.956h-163.2V200.1h78.42L993.64,309.036v49.171h173.8V306.069h-97.08Zm211.1,0V147.956h-163.2V200.1h78.42l-86.48,108.941v49.171h173.8V306.069h-97.07Zm153.44,70.9-54.68-109.789h-65.28l89.02,178.459-52.14,115.723h64l132.68-294.182h-64Z"/>
  <path id="software_house" data-name="software house" class="cls-6" d="M1227.83,119.456a8.128,8.128,0,0,1-3.69-.81,6.055,6.055,0,0,1-2.66-3.08l-5.32,2.4a9.772,9.772,0,0,0,4.24,5.284,13.1,13.1,0,0,0,7.14,1.977,15.992,15.992,0,0,0,4.95-.743,12.2,12.2,0,0,0,3.94-2.07,9.791,9.791,0,0,0,2.59-3.136,8.73,8.73,0,0,0,.38-7.018,6.474,6.474,0,0,0-1.91-2.555,14.189,14.189,0,0,0-3.63-2.133,37.336,37.336,0,0,0-5.7-1.812c-0.52-.129-1.08-0.28-1.69-0.453a7.976,7.976,0,0,1-1.68-.679,4.472,4.472,0,0,1-1.33-1.067,2.308,2.308,0,0,1-.56-1.552,2.44,2.44,0,0,1,.49-1.487,4.513,4.513,0,0,1,1.2-1.1,5.568,5.568,0,0,1,1.56-.679,6.221,6.221,0,0,1,1.62-.227,5.543,5.543,0,0,1,3.56,1.037,4.7,4.7,0,0,1,1.69,2.594l5.64-1.362a8.139,8.139,0,0,0-1.33-3.19,9.855,9.855,0,0,0-2.46-2.457,12.558,12.558,0,0,0-3.28-1.608,12.271,12.271,0,0,0-3.82-.591,12.444,12.444,0,0,0-4.31.746,11.878,11.878,0,0,0-3.54,2.01,10.167,10.167,0,0,0-2.41,2.918,7.27,7.27,0,0,0-.89,3.534,7.034,7.034,0,0,0,.81,3.468,8.142,8.142,0,0,0,2.2,2.529,13.561,13.561,0,0,0,3.27,1.815,30.546,30.546,0,0,0,4.02,1.264q0.78,0.2,1.95.454a11.551,11.551,0,0,1,2.24.746,6.535,6.535,0,0,1,1.81,1.2,2.324,2.324,0,0,1,.75,1.751,2.488,2.488,0,0,1-.46,1.491,6.854,6.854,0,0,1-1.03,1.167,6.672,6.672,0,0,1-4.35,1.426h0Zm37.41,4.571a15.407,15.407,0,0,0,4.96-3.469,16.811,16.811,0,0,0,0-23.08,15.422,15.422,0,0,0-4.96-3.469,15.085,15.085,0,0,0-12.09,0,15.627,15.627,0,0,0-4.93,3.469,16.809,16.809,0,0,0,0,23.08,15.612,15.612,0,0,0,4.93,3.469A15.087,15.087,0,0,0,1265.24,124.027Zm-2.48-24.86a9.368,9.368,0,0,1,2.92,2.276,10.771,10.771,0,0,1,1.96,3.381,12.554,12.554,0,0,1,0,8.324,11.171,11.171,0,0,1-1.96,3.414,9.152,9.152,0,0,1-2.92,2.309,8.006,8.006,0,0,1-7.16,0,9.529,9.529,0,0,1-2.96-2.309,10.846,10.846,0,0,1-1.99-3.414,12.554,12.554,0,0,1,0-8.324,10.466,10.466,0,0,1,1.99-3.381,9.763,9.763,0,0,1,2.96-2.276A8,8,0,0,1,1262.76,99.167Zm27.83,25.346V99.034h9.6V93.458h-9.6V88.725q0-3.565,1.46-5.187a5.248,5.248,0,0,1,4.12-1.621,14.159,14.159,0,0,1,4.02.713v-4.6a14.3,14.3,0,0,0-5.39-1.1,10.868,10.868,0,0,0-4.02.746,9.163,9.163,0,0,0-3.33,2.3,11.031,11.031,0,0,0-2.31,3.987,17.6,17.6,0,0,0-.84,5.738v3.76l-5.32,1.281v4.294h5.32v25.479h6.29Zm30.73-.129-1.23-4.6a25.524,25.524,0,0,1-3.31.26,4.607,4.607,0,0,1-2.2-.454,2.573,2.573,0,0,1-1.2-1.362,6.843,6.843,0,0,1-.36-2.463V99.034h8.43V93.458h-8.43v-8.3h-6.29v8.3l-4.54,1.281v4.294h4.54v15.754a13.926,13.926,0,0,0,1.3,6.646,7.3,7.3,0,0,0,3.37,3.306,9.449,9.449,0,0,0,4.67.746,21.129,21.129,0,0,0,5.25-1.1h0Zm20.03,0.129,6.42-19,0.52-2.982,0.52,2.982,6.48,19h6.87l10.44-31.055h-6.67l-7.2,23.275-7.65-23.275h-5.58l-7.65,23.47-7.26-23.47h-6.68l10.44,31.055h7Zm59.71-31.055-0.97,3.436a11.666,11.666,0,0,0-4.28-3.144,12.79,12.79,0,0,0-4.99-1,14.643,14.643,0,0,0-6.06,1.264,15.515,15.515,0,0,0-4.93,3.469,16.809,16.809,0,0,0,0,23.08,15.5,15.5,0,0,0,4.93,3.469,14.639,14.639,0,0,0,6.06,1.264,12.675,12.675,0,0,0,5.12-1.1,10.2,10.2,0,0,0,4.15-3.242l0.97,3.566h5.32V93.458h-5.32Zm-13.81,25.415a9.107,9.107,0,0,1-2.91-2.3,11.316,11.316,0,0,1-1.95-3.4,12.478,12.478,0,0,1,0-8.3,11.328,11.328,0,0,1,1.95-3.4,9.135,9.135,0,0,1,2.91-2.3,7.982,7.982,0,0,1,7.14,0,9.135,9.135,0,0,1,2.91,2.3,11.328,11.328,0,0,1,1.95,3.4,12.478,12.478,0,0,1,0,8.3,11.316,11.316,0,0,1-1.95,3.4,9.107,9.107,0,0,1-2.91,2.3A7.981,7.981,0,0,1,1387.25,118.873Zm44.28-19.645,1.63-5.9a22.424,22.424,0,0,0-4.74-.584,11.027,11.027,0,0,0-5.28,1.135,9.484,9.484,0,0,0-3.4,3.015l-1.3-3.436h-4.99v31.055h6.29l0.06-18.412a6.688,6.688,0,0,1,.68-2.95,7.724,7.724,0,0,1,1.85-2.431,8.976,8.976,0,0,1,2.79-1.654,9.748,9.748,0,0,1,3.5-.616,4.544,4.544,0,0,1,1.1.13c0.34,0.087.65,0.173,0.91,0.259l0.9,0.389h0Zm27.66,24.7a16.885,16.885,0,0,0,5.54-3.631l-3.89-3.89a11.544,11.544,0,0,1-8.17,3.307,10.345,10.345,0,0,1-3.47-.584,10,10,0,0,1-2.98-1.653,11.116,11.116,0,0,1-2.3-2.529,10.494,10.494,0,0,1-1.43-3.144h23.08a29.689,29.689,0,0,0-1.1-8.59,16.613,16.613,0,0,0-3.08-5.933,12.1,12.1,0,0,0-4.67-3.436,15.33,15.33,0,0,0-5.87-1.1,13.663,13.663,0,0,0-5.83,1.264,15.184,15.184,0,0,0-4.77,3.469,17.024,17.024,0,0,0-4.44,11.54,16.155,16.155,0,0,0,16.21,16.273A18.556,18.556,0,0,0,1459.19,123.93Zm-5.13-24.864a7.744,7.744,0,0,1,4.06,4.182,10.427,10.427,0,0,1,.71,2.982h-16.4a11.226,11.226,0,0,1,1.2-3.112,9.915,9.915,0,0,1,1.94-2.463,9.145,9.145,0,0,1,2.46-1.621,6.965,6.965,0,0,1,2.82-.584A7.884,7.884,0,0,1,1454.06,99.066Zm40.82,9.823a13.968,13.968,0,0,1,.74-4.863,9.72,9.72,0,0,1,1.88-3.242A6.976,6.976,0,0,1,1500,99a7.17,7.17,0,0,1,2.72-.551,5.885,5.885,0,0,1,3.01.81,8.278,8.278,0,0,1,2.47,2.237,11.249,11.249,0,0,1,1.68,3.371,13.689,13.689,0,0,1,.62,4.149v15.5h6.29v-15.5a20.911,20.911,0,0,0-.94-6.353,15.349,15.349,0,0,0-2.75-5.187,13.165,13.165,0,0,0-4.36-3.469,12.923,12.923,0,0,0-5.79-1.264,11.313,11.313,0,0,0-4.44.81,10.5,10.5,0,0,0-3.65,2.755l0.02-19.126h-6.29v47.328h6.29V108.889Zm48.49,15.138a15.516,15.516,0,0,0,4.96-3.469,16.811,16.811,0,0,0,0-23.08,15.531,15.531,0,0,0-4.96-3.469,15.085,15.085,0,0,0-12.09,0,15.627,15.627,0,0,0-4.93,3.469,16.809,16.809,0,0,0,0,23.08,15.612,15.612,0,0,0,4.93,3.469A15.087,15.087,0,0,0,1543.37,124.027Zm-2.48-24.86a9.368,9.368,0,0,1,2.92,2.276,10.771,10.771,0,0,1,1.96,3.381,12.554,12.554,0,0,1,0,8.324,11.171,11.171,0,0,1-1.96,3.414,9.152,9.152,0,0,1-2.92,2.309,8.006,8.006,0,0,1-7.16,0,9.415,9.415,0,0,1-2.96-2.309,10.846,10.846,0,0,1-1.99-3.414,12.554,12.554,0,0,1,0-8.324,10.466,10.466,0,0,1,1.99-3.381,9.643,9.643,0,0,1,2.96-2.276A8,8,0,0,1,1540.89,99.167Zm39.37,25.346h4.99V93.458h-6.29v18.931a6.36,6.36,0,0,1-.81,3.307,7.727,7.727,0,0,1-1.97,2.237,7.887,7.887,0,0,1-2.5,1.264,8.609,8.609,0,0,1-2.37.389,9.292,9.292,0,0,1-2.66-.389,6.427,6.427,0,0,1-2.3-1.232,6.026,6.026,0,0,1-1.62-2.237,8.415,8.415,0,0,1-.61-3.4V93.458h-5.97v18.867a14.343,14.343,0,0,0,1.27,6.515,11.258,11.258,0,0,0,3.11,3.923,10.13,10.13,0,0,0,3.99,1.912,17.356,17.356,0,0,0,3.82.487,11.708,11.708,0,0,0,4.83-.973,13.915,13.915,0,0,0,3.79-2.464Zm22.5-5.057a8.141,8.141,0,0,1-3.7-.81,6.055,6.055,0,0,1-2.66-3.08l-5.31,2.4a9.754,9.754,0,0,0,4.23,5.284,13.111,13.111,0,0,0,7.15,1.977,15.974,15.974,0,0,0,4.94-.743,12.251,12.251,0,0,0,3.95-2.07,9.759,9.759,0,0,0,2.58-3.136,8.265,8.265,0,0,0,.94-3.881,8.407,8.407,0,0,0-.55-3.137,6.671,6.671,0,0,0-1.91-2.555,14.189,14.189,0,0,0-3.63-2.133,37.867,37.867,0,0,0-5.71-1.812c-0.52-.129-1.08-0.28-1.69-0.453a8.435,8.435,0,0,1-1.68-.679,4.6,4.6,0,0,1-1.33-1.067,2.3,2.3,0,0,1-.55-1.552,2.431,2.431,0,0,1,.48-1.487,4.671,4.671,0,0,1,1.2-1.1,5.7,5.7,0,0,1,1.56-.679,6.221,6.221,0,0,1,1.62-.227,5.592,5.592,0,0,1,3.57,1.037,4.733,4.733,0,0,1,1.68,2.594l5.64-1.362a7.993,7.993,0,0,0-1.33-3.19,9.855,9.855,0,0,0-2.46-2.457,12.64,12.64,0,0,0-11.4-1.453,11.809,11.809,0,0,0-3.55,2.01,10.13,10.13,0,0,0-2.4,2.918,7.279,7.279,0,0,0-.9,3.534,7.034,7.034,0,0,0,.81,3.468,8.142,8.142,0,0,0,2.2,2.529,13.445,13.445,0,0,0,3.28,1.815,29.627,29.627,0,0,0,4.02,1.264c0.52,0.13,1.17.282,1.94,0.454a11.33,11.33,0,0,1,2.24.746,6.592,6.592,0,0,1,1.82,1.2,2.352,2.352,0,0,1,.74,1.751,2.55,2.55,0,0,1-.45,1.491,6.909,6.909,0,0,1-1.04,1.167,6.663,6.663,0,0,1-4.34,1.426h0Zm39.64,4.474a16.885,16.885,0,0,0,5.54-3.631l-3.89-3.89a11.5,11.5,0,0,1-8.16,3.307,10.3,10.3,0,0,1-3.47-.584,10.049,10.049,0,0,1-2.99-1.653,11.352,11.352,0,0,1-2.3-2.529,10.469,10.469,0,0,1-1.42-3.144h23.08a29.324,29.324,0,0,0-1.11-8.59,16.6,16.6,0,0,0-3.07-5.933,12.1,12.1,0,0,0-4.67-3.436,15.367,15.367,0,0,0-5.87-1.1,13.74,13.74,0,0,0-5.84,1.264,15.143,15.143,0,0,0-4.76,3.469,17.024,17.024,0,0,0-4.44,11.54,16.156,16.156,0,0,0,9.89,15.009,15.835,15.835,0,0,0,6.32,1.264A18.47,18.47,0,0,0,1642.4,123.93Zm-5.12-24.864a7.651,7.651,0,0,1,2.43,1.686,7.824,7.824,0,0,1,1.62,2.5,9.8,9.8,0,0,1,.71,2.982h-16.4a11.547,11.547,0,0,1,1.2-3.112,9.95,9.95,0,0,1,1.95-2.463,8.844,8.844,0,0,1,2.46-1.621,6.931,6.931,0,0,1,2.82-.584A7.884,7.884,0,0,1,1637.28,99.066Z"/>
</svg>
